<svg width="32" height="32" viewBox="0 0 32 32" fill="none" xmlns="http://www.w3.org/2000/svg">
  <rect width="32" height="32" rx="4" fill="#16130F" />
  <!-- ticket body -->
  <path
    d="M7 11.5C7 10.67 7.67 10 8.5 10H23.5C24.33 10 25 10.67 25 11.5V14C23.9 14 23 14.9 23 16C23 17.1 23.9 18 25 18V20.5C25 21.33 24.33 22 23.5 22H8.5C7.67 22 7 21.33 7 20.5V18C8.1 18 9 17.1 9 16C9 14.9 8.1 14 7 14V11.5Z"
    fill="#F7F4EC"
  />
  <!-- perforation -->
  <line x1="16" y1="11" x2="16" y2="21" stroke="#16130F" stroke-width="1.4" stroke-dasharray="1.6 1.6" />
  <!-- vermilion stub mark -->
  <circle cx="20" cy="16" r="1.6" fill="#E5432F" />
</svg>
